<?xml version="1.0" standalone="no"?><svg xmlns="http://www.w3.org/2000/svg" viewBox="0 0 1440 320"><path fill="#0099ff" fill-opacity="1" d="M0,96L16,96C32,96,64,96,96,96C128,96,160,96,192,106.7C224,117,256,139,288,170.7C320,203,352,245,384,245.3C416,245,448,203,480,170.7C512,139,544,117,576,106.7C608,96,640,96,672,101.3C704,107,736,117,768,106.7C800,96,832,64,864,64C896,64,928,96,960,138.7C992,181,1024,235,1056,245.3C1088,256,1120,224,1152,186.7C1184,149,1216,107,1248,101.3C1280,96,1312,128,1344,128C1376,128,1408,96,1424,80L1440,64L1440,320L1424,320C1408,320,1376,320,1344,320C1312,320,1280,320,1248,320C1216,320,1184,320,1152,320C1120,320,1088,320,1056,320C1024,320,992,320,960,320C928,320,896,320,864,320C832,320,800,320,768,320C736,320,704,320,672,320C640,320,608,320,576,320C544,320,512,320,480,320C448,320,416,320,384,320C352,320,320,320,288,320C256,320,224,320,192,320C160,320,128,320,96,320C64,320,32,320,16,320L0,320Z"></path></svg>